<svg width="200" height="240" viewBox="0 0 200 240" fill="none" xmlns="http://www.w3.org/2000/svg">
    <g opacity="0.3">
        <path opacity="0.3" d="M139.67 49.25C134.203 49.2447 128.961 47.0704 125.095 43.2046C121.229 39.3387 119.055 34.097 119.05 28.6299V0H26.91C19.773 0 12.9284 2.83523 7.88176 7.88184C2.83516 12.9284 0 19.7729 0 26.9099V189.13C0.0105984 196.26 2.85043 203.094 7.89589 208.132C12.9413 213.17 19.78 216 26.91 216H137.51C141.045 216.001 144.545 215.306 147.811 213.955C151.077 212.603 154.045 210.621 156.545 208.122C159.045 205.623 161.028 202.656 162.381 199.39C163.734 196.125 164.43 192.625 164.43 189.09V49.21L139.67 49.25Z" fill="#00C650"/>
    </g>
    <path d="M164.43 49.25H139.67C134.203 49.2447 128.961 47.0704 125.095 43.2046C121.229 39.3387 119.055 34.097 119.05 28.6299V0L164.43 49.25Z" fill="#00C650"/>
    <path d="M183.94 170.61H58.9C50.0303 170.61 42.84 177.8 42.84 186.67V223.95C42.84 232.82 50.0303 240.01 58.9 240.01H183.94C192.81 240.01 200 232.82 200 223.95V186.67C200 177.8 192.81 170.61 183.94 170.61Z" fill="#00C650"/>
    <path d="M80.49 213.12V220.37H73V213.12H80.49Z" fill="white"/>
    <path d="M107.4 193.14C109.931 195.188 111.65 198.07 112.25 201.27H104.59C104.079 199.942 103.176 198.802 102 198C100.763 197.189 99.3086 196.774 97.83 196.81C96.8551 196.781 95.8865 196.975 94.9989 197.379C94.1112 197.783 93.3281 198.386 92.71 199.14C91.3358 200.917 90.644 203.127 90.76 205.37C90.6432 207.604 91.3355 209.805 92.71 211.57C93.3306 212.32 94.1146 212.919 95.0021 213.319C95.8896 213.719 96.8569 213.911 97.83 213.88C99.3086 213.916 100.763 213.501 102 212.69C103.175 211.905 104.085 210.782 104.61 209.47H112.27C111.657 212.66 109.94 215.531 107.42 217.58C104.716 219.659 101.368 220.721 97.96 220.58C95.2762 220.639 92.6263 219.972 90.29 218.65C88.101 217.384 86.3286 215.508 85.19 213.25C83.9574 210.798 83.3397 208.084 83.39 205.34C83.3385 202.593 83.9562 199.875 85.19 197.42C86.3286 195.162 88.101 193.286 90.29 192.02C92.6263 190.698 95.2762 190.031 97.96 190.09C101.366 189.973 104.706 191.052 107.4 193.14Z" fill="white"/>
    <path d="M136.63 216.3C135.768 217.675 134.534 218.778 133.07 219.48C131.289 220.314 129.336 220.718 127.37 220.66C124.409 220.78 121.491 219.919 119.07 218.21C118.001 217.406 117.126 216.372 116.509 215.185C115.893 213.998 115.552 212.687 115.51 211.35H123.22C123.273 212.358 123.706 213.308 124.43 214.01C125.146 214.681 126.099 215.04 127.08 215.01C127.884 215.051 128.673 214.778 129.28 214.25C129.543 213.989 129.75 213.677 129.888 213.333C130.026 212.989 130.091 212.62 130.08 212.25C130.089 211.9 130.029 211.552 129.902 211.225C129.775 210.899 129.584 210.602 129.34 210.35C128.815 209.817 128.189 209.392 127.5 209.1C126.76 208.77 125.75 208.38 124.45 207.93C122.863 207.408 121.313 206.78 119.81 206.05C118.575 205.411 117.514 204.481 116.72 203.34C115.806 201.955 115.355 200.317 115.43 198.66C115.389 197.017 115.861 195.402 116.78 194.04C117.725 192.709 119.024 191.67 120.53 191.04C122.272 190.335 124.141 189.995 126.02 190.04C128.861 189.89 131.666 190.727 133.96 192.41C134.939 193.204 135.741 194.194 136.312 195.317C136.884 196.44 137.214 197.671 137.28 198.93H129.45C129.354 198.05 128.975 197.226 128.37 196.58C128.057 196.284 127.688 196.054 127.284 195.904C126.88 195.755 126.45 195.689 126.02 195.71C125.273 195.672 124.538 195.914 123.96 196.39C123.69 196.644 123.479 196.956 123.344 197.302C123.209 197.648 123.153 198.019 123.18 198.39C123.171 198.721 123.229 199.051 123.349 199.36C123.469 199.669 123.65 199.951 123.88 200.19C124.376 200.712 124.975 201.124 125.64 201.4C126.34 201.71 127.36 202.11 128.64 202.59C130.256 203.11 131.831 203.752 133.35 204.51C134.596 205.18 135.668 206.132 136.48 207.29C137.407 208.692 137.866 210.351 137.79 212.03C137.797 213.532 137.396 215.008 136.63 216.3Z" fill="white"/>
    <path d="M147.44 190.43L154.77 212.96L162.1 190.43H169.85L159.43 220.37H150.07L139.69 190.43H147.44Z" fill="white"/>
    <path d="M118.89 150.8H45.54C39.19 150.8 34.03 144.48 34.03 136.7V83.51C34.03 75.74 39.19 69.4199 45.54 69.4199H118.89C125.24 69.4199 130.4 75.74 130.4 83.51V136.7C130.4 144.48 125.24 150.8 118.89 150.8ZM45.54 76.6201C42.44 76.6201 39.91 79.71 39.91 83.51V136.7C39.91 140.5 42.44 143.59 45.54 143.59H118.89C121.99 143.59 124.51 140.5 124.51 136.7V83.51C124.51 79.71 121.99 76.6201 118.89 76.6201H45.54Z" fill="#00C650"/>
    <path d="M127.46 118.77H36.97V125.98H127.46V118.77Z" fill="#00C650"/>
    <path d="M127.46 94.05H36.97V101.26H127.46V94.05Z" fill="#00C650"/>
    <path d="M104.29 73.02H97.08V147.19H104.29V73.02Z" fill="#00C650"/>
    <path d="M67.35 73.02H60.14V147.19H67.35V73.02Z" fill="#00C650"/>
</svg>
