<svg width="201" height="240" viewBox="0 0 201 240" fill="none" xmlns="http://www.w3.org/2000/svg">
    <g opacity="0.3">
        <path opacity="0.3" d="M140 49.25C134.532 49.2447 129.289 47.0709 125.422 43.2053C121.554 39.3398 119.378 34.0979 119.37 28.6299V0H27.2C20.063 0 13.2184 2.83523 8.17175 7.88184C3.12515 12.9284 0.290039 19.7729 0.290039 26.9099V189.13C0.300637 196.26 3.14046 203.094 8.18591 208.132C13.2314 213.17 20.0699 216 27.2 216H137.8C144.937 216 151.782 213.165 156.828 208.118C161.875 203.072 164.71 196.227 164.71 189.09V49.21L140 49.25Z" fill="#5B5B5B"/>
    </g>
    <path d="M164.71 49.25H140C134.532 49.2447 129.289 47.0709 125.422 43.2053C121.554 39.3398 119.378 34.0979 119.37 28.6299V0L164.71 49.25Z" fill="#5B5B5B"/>
    <path d="M184.23 170.61H59.1899C50.3202 170.61 43.13 177.8 43.13 186.67V223.95C43.13 232.82 50.3202 240.01 59.1899 240.01H184.23C193.1 240.01 200.29 232.82 200.29 223.95V186.67C200.29 177.8 193.1 170.61 184.23 170.61Z" fill="#5B5B5B"/>
    <path d="M71.3001 83.73H27.64C26.6481 83.73 25.6968 83.3359 24.9954 82.6345C24.294 81.9331 23.9 80.9819 23.9 79.99C23.8987 79.498 23.9944 79.0106 24.1818 78.5557C24.3691 78.1008 24.6444 77.6872 24.9918 77.3389C25.3393 76.9905 25.752 76.7142 26.2064 76.5256C26.6608 76.3371 27.148 76.24 27.64 76.24H71.3001C72.2877 76.2532 73.2301 76.6554 73.9229 77.3594C74.6156 78.0634 75.0027 79.0123 75 80C74.9949 80.9825 74.6043 81.9238 73.9124 82.6213C73.2204 83.3189 72.2825 83.7169 71.3001 83.73V83.73Z" fill="#5B5B5B"/>
    <path d="M71.3001 106.1H27.64C26.6481 106.1 25.6968 105.706 24.9954 105.005C24.294 104.303 23.9 103.352 23.9 102.36C23.8987 101.868 23.9944 101.381 24.1818 100.926C24.3691 100.471 24.6444 100.057 24.9918 99.709C25.3393 99.3606 25.752 99.0843 26.2064 98.8958C26.6608 98.7072 27.148 98.6101 27.64 98.6101H71.3001C72.2929 98.6128 73.2441 99.0089 73.9452 99.7119C74.6463 100.415 75.0401 101.367 75.0401 102.36C75.0374 103.351 74.6425 104.301 73.9417 105.002C73.2409 105.703 72.2912 106.097 71.3001 106.1V106.1Z" fill="#5B5B5B"/>
    <path d="M71.3001 128.47H27.64C27.148 128.47 26.6608 128.373 26.2064 128.184C25.752 127.996 25.3393 127.719 24.9918 127.371C24.6444 127.023 24.3691 126.609 24.1818 126.154C23.9944 125.699 23.8987 125.212 23.9 124.72C23.9 123.728 24.294 122.777 24.9954 122.075C25.6968 121.374 26.6481 120.98 27.64 120.98H71.3001C72.2912 120.983 73.2409 121.378 73.9417 122.078C74.6425 122.779 75.0374 123.729 75.0401 124.72C75.0401 125.713 74.6463 126.665 73.9452 127.368C73.2441 128.071 72.2929 128.467 71.3001 128.47V128.47Z" fill="#5B5B5B"/>
    <path d="M71.3001 150.84H27.64C27.148 150.84 26.6608 150.743 26.2064 150.554C25.752 150.366 25.3393 150.089 24.9918 149.741C24.6444 149.393 24.3691 148.979 24.1818 148.524C23.9944 148.07 23.8987 147.582 23.9 147.09C23.9 146.098 24.294 145.147 24.9954 144.445C25.6968 143.744 26.6481 143.35 27.64 143.35H71.3001C72.2912 143.353 73.2409 143.747 73.9417 144.448C74.6425 145.149 75.0374 146.099 75.0401 147.09C75.0401 148.083 74.6463 149.035 73.9452 149.738C73.2441 150.441 72.2929 150.837 71.3001 150.84V150.84Z" fill="#5B5B5B"/>
    <path d="M130.88 83.73H88.32C87.328 83.73 86.3768 83.3359 85.6754 82.6345C84.974 81.9331 84.58 80.9819 84.58 79.99C84.5787 79.498 84.6745 79.0106 84.8618 78.5557C85.0492 78.1008 85.3245 77.6872 85.6719 77.3389C86.0193 76.9905 86.4321 76.7142 86.8865 76.5256C87.3409 76.3371 87.828 76.24 88.32 76.24H130.88C131.875 76.24 132.828 76.6351 133.532 77.3384C134.235 78.0416 134.63 78.9954 134.63 79.99C134.627 80.9828 134.231 81.9342 133.528 82.6353C132.825 83.3364 131.873 83.73 130.88 83.73V83.73Z" fill="#5B5B5B"/>
    <path d="M130.88 106.1H88.32C87.328 106.1 86.3768 105.706 85.6754 105.005C84.974 104.303 84.58 103.352 84.58 102.36C84.5787 101.868 84.6745 101.381 84.8618 100.926C85.0492 100.471 85.3245 100.057 85.6719 99.709C86.0193 99.3606 86.4321 99.0843 86.8865 98.8958C87.3409 98.7072 87.828 98.6101 88.32 98.6101H130.88C131.875 98.6101 132.828 99.005 133.532 99.7083C134.235 100.412 134.63 101.366 134.63 102.36C134.627 103.353 134.231 104.304 133.528 105.005C132.825 105.706 131.873 106.1 130.88 106.1V106.1Z" fill="#5B5B5B"/>
    <path d="M130.88 128.47H88.32C87.828 128.47 87.3409 128.373 86.8865 128.184C86.4321 127.996 86.0193 127.719 85.6719 127.371C85.3245 127.023 85.0492 126.609 84.8618 126.154C84.6745 125.699 84.5787 125.212 84.58 124.72C84.58 123.728 84.974 122.777 85.6754 122.075C86.3768 121.374 87.328 120.98 88.32 120.98H130.88C131.873 120.98 132.825 121.374 133.528 122.075C134.231 122.776 134.627 123.727 134.63 124.72C134.63 125.715 134.235 126.668 133.532 127.372C132.828 128.075 131.875 128.47 130.88 128.47Z" fill="#5B5B5B"/>
    <path d="M130.88 150.84H88.32C87.828 150.84 87.3409 150.743 86.8865 150.554C86.4321 150.366 86.0193 150.089 85.6719 149.741C85.3245 149.393 85.0492 148.979 84.8618 148.524C84.6745 148.07 84.5787 147.582 84.58 147.09C84.58 146.098 84.974 145.147 85.6754 144.445C86.3768 143.744 87.328 143.35 88.32 143.35H130.88C131.873 143.35 132.825 143.744 133.528 144.445C134.231 145.146 134.627 146.097 134.63 147.09C134.63 148.085 134.235 149.038 133.532 149.742C132.828 150.445 131.875 150.84 130.88 150.84Z" fill="#5B5B5B"/>
    <path d="M131.407 194.778C131.421 195.876 131.286 196.971 131.007 198.033C130.764 198.93 130.413 199.793 129.962 200.605C129.549 201.338 129.07 202.033 128.532 202.68C128.008 203.305 127.496 203.898 127.007 204.446L126.943 204.516C126.486 204.999 126.062 205.463 125.687 205.901C125.28 206.372 124.921 206.882 124.613 207.423C124.29 207.994 124.043 208.605 123.877 209.24C123.69 209.993 123.601 210.767 123.612 211.543V211.677C123.58 212.389 123.276 213.061 122.761 213.553C122.246 214.045 121.562 214.32 120.85 214.32C120.137 214.32 119.453 214.045 118.938 213.553C118.424 213.061 118.119 212.389 118.088 211.677V211.543C118.076 210.29 118.227 209.04 118.536 207.825C118.823 206.728 119.251 205.673 119.808 204.685C120.294 203.837 120.861 203.037 121.499 202.296C121.923 201.802 122.398 201.276 122.908 200.742C123.354 200.24 123.821 199.695 124.304 199.123C124.627 198.735 124.913 198.318 125.16 197.878C125.388 197.457 125.565 197.011 125.687 196.549C125.831 195.97 125.897 195.374 125.882 194.778C125.894 194.076 125.759 193.379 125.488 192.732C125.231 192.098 124.851 191.521 124.371 191.033C123.896 190.553 123.33 190.172 122.707 189.911C122.095 189.646 121.433 189.515 120.766 189.525C120.079 189.513 119.396 189.647 118.764 189.916C117.475 190.452 116.452 191.477 115.919 192.767C115.649 193.401 115.516 194.084 115.527 194.772V194.847C115.543 195.22 115.484 195.593 115.353 195.942C115.221 196.292 115.02 196.611 114.762 196.881C114.504 197.15 114.194 197.365 113.851 197.512C113.508 197.658 113.138 197.734 112.765 197.734C112.391 197.734 112.022 197.658 111.679 197.512C111.335 197.365 111.025 197.15 110.767 196.881C110.509 196.611 110.308 196.292 110.177 195.942C110.045 195.593 109.986 195.22 110.003 194.847V194.772C109.991 193.333 110.278 191.907 110.846 190.585C111.936 187.998 113.991 185.938 116.576 184.843C117.899 184.275 119.326 183.988 120.766 184C122.191 183.988 123.602 184.276 124.908 184.843C127.476 185.941 129.511 188.001 130.577 190.582C131.138 191.909 131.418 193.337 131.407 194.778ZM124.057 221.11C124.241 221.549 124.336 222.02 124.336 222.496C124.336 222.972 124.241 223.443 124.057 223.882C123.693 224.741 123.01 225.424 122.151 225.788L122.138 225.796C121.71 225.98 121.248 226.074 120.782 226.073C120.072 226.079 119.375 225.874 118.78 225.484C118.186 225.095 117.721 224.537 117.443 223.882C117.165 223.232 117.088 222.512 117.224 221.818C117.36 221.123 117.702 220.485 118.206 219.988C118.543 219.664 118.938 219.406 119.371 219.228C119.818 219.04 120.298 218.944 120.782 218.946C121.248 218.946 121.709 219.04 122.138 219.223L122.151 219.231C122.575 219.41 122.961 219.666 123.292 219.985C123.619 220.304 123.879 220.686 124.057 221.107V221.11Z" fill="white"/>
</svg>
