<svg viewBox="3.1494799999999996 3.1494799999999996 16.613599999999998 16.78848" fill="none" xmlns="http://www.w3.org/2000/svg" style="max-height: 500px" width="16.613599999999998" height="16.78848">
<mask height="23" width="23" y="0" x="0" maskUnits="userSpaceOnUse" style="mask-type:alpha" id="mask0_3497_4744">
<rect fill="#D9D9D9" height="21.8561" width="21.8561" y="0.570801" x="0.570312"/>
</mask>
<g mask="url(#mask0_3497_4744)">
<path fill="#1A1F4A" d="M5.40403 19.2397C4.94402 19.2397 4.55465 19.0803 4.23592 18.7616C3.91718 18.4428 3.75781 18.0535 3.75781 17.5935V5.40452C3.75781 4.94451 3.91718 4.55514 4.23592 4.2364C4.55465 3.91767 4.94402 3.7583 5.40403 3.7583H14.9485L19.2392 8.04895V17.5935C19.2392 18.0535 19.0798 18.4428 18.7611 18.7616C18.4424 19.0803 18.053 19.2397 17.593 19.2397H5.40403ZM5.40403 17.8737H17.593C17.6747 17.8737 17.7418 17.8474 17.7944 17.7949C17.8469 17.7423 17.8732 17.6752 17.8732 17.5935V8.76697H14.2305V5.12429H5.40403C5.3223 5.12429 5.25516 5.15056 5.20262 5.2031C5.15007 5.25565 5.1238 5.32279 5.1238 5.40452V17.5935C5.1238 17.6752 5.15007 17.7423 5.20262 17.7949C5.25516 17.8474 5.3223 17.8737 5.40403 17.8737ZM7.17283 15.597H15.8242V14.231H7.17283V15.597ZM7.17283 8.76697H11.4985V7.40099H7.17283V8.76697ZM7.17283 12.182H15.8242V10.816H7.17283V12.182Z"/>
</g>
</svg>