<svg width="14" height="14" viewBox="0 0 14 14" fill="none" xmlns="http://www.w3.org/2000/svg">
    <path d="M4.44824 3.73317L6.08158 1.61859C6.19824 1.46303 6.33678 1.3488 6.4972 1.27588C6.65762 1.20296 6.82533 1.1665 7.00033 1.1665C7.17533 1.1665 7.34303 1.20296 7.50345 1.27588C7.66387 1.3488 7.80241 1.46303 7.91908 1.61859L9.55241 3.73317L12.0316 4.56442C12.2844 4.6422 12.4837 4.7856 12.6295 4.99463C12.7753 5.20366 12.8482 5.43456 12.8482 5.68734C12.8482 5.804 12.8312 5.92067 12.7972 6.03734C12.7632 6.154 12.7073 6.26581 12.6295 6.37275L11.0253 8.64775L11.0837 11.0394C11.0934 11.3797 10.9816 11.6665 10.7482 11.8998C10.5149 12.1332 10.2427 12.2498 9.93158 12.2498C9.91213 12.2498 9.80519 12.2353 9.61074 12.2061L7.00033 11.4769L4.38991 12.2061C4.3413 12.2255 4.28783 12.2377 4.22949 12.2425C4.17116 12.2474 4.11769 12.2498 4.06908 12.2498C3.75796 12.2498 3.48574 12.1332 3.25241 11.8998C3.01908 11.6665 2.90727 11.3797 2.91699 11.0394L2.97533 8.63317L1.38574 6.37275C1.30796 6.26581 1.25206 6.154 1.21803 6.03734C1.18401 5.92067 1.16699 5.804 1.16699 5.68734C1.16699 5.44428 1.23748 5.21824 1.37845 5.00921C1.51942 4.80018 1.7163 4.65192 1.96908 4.56442L4.44824 3.73317Z"
          fill="#FFD400"
          stroke="#FFD400"
          stroke-width="1.75"/>
</svg>