<svg width="14" height="15" viewBox="0 0 14 15" fill="none" xmlns="http://www.w3.org/2000/svg">
<path d="M0.333252 14.6667V2.66667C0.333252 2.3 0.463808 1.98611 0.724919 1.725C0.98603 1.46389 1.29992 1.33333 1.66659 1.33333H8.39992C8.35548 1.55556 8.33325 1.77778 8.33325 2C8.33325 2.22222 8.35548 2.44444 8.39992 2.66667H1.66659V11.4167L2.43325 10.6667H12.3333V5.26667C12.5888 5.21111 12.8277 5.13611 13.0499 5.04167C13.2721 4.94722 13.4777 4.82222 13.6666 4.66667V10.6667C13.6666 11.0333 13.536 11.3472 13.2749 11.6083C13.0138 11.8694 12.6999 12 12.3333 12H2.99992L0.333252 14.6667ZM11.6666 4C11.111 4 10.6388 3.80556 10.2499 3.41667C9.86103 3.02778 9.66659 2.55556 9.66659 2C9.66659 1.44444 9.86103 0.972222 10.2499 0.583333C10.6388 0.194444 11.111 0 11.6666 0C12.2221 0 12.6944 0.194444 13.0833 0.583333C13.4721 0.972222 13.6666 1.44444 13.6666 2C13.6666 2.55556 13.4721 3.02778 13.0833 3.41667C12.6944 3.80556 12.2221 4 11.6666 4Z" fill="#1F1B1B"/>
</svg>
