<svg width="201" height="240" viewBox="0 0 201 240" fill="none" xmlns="http://www.w3.org/2000/svg">
    <g opacity="0.3">
        <path opacity="0.3" d="M140.24 49.25C134.773 49.2447 129.531 47.0704 125.665 43.2046C121.799 39.3387 119.625 34.097 119.62 28.6299V0H27.48C20.343 0 13.4984 2.83523 8.45178 7.88184C3.40518 12.9284 0.570007 19.7729 0.570007 26.9099V189.13C0.580606 196.26 3.42043 203.094 8.46588 208.132C13.5113 213.17 20.3499 216 27.48 216H138.09C145.22 216 152.059 213.17 157.104 208.132C162.15 203.094 164.989 196.26 165 189.13V49.25H140.24Z" fill="#FF3E4C"/>
    </g>
    <path d="M165 49.25H140.24C134.773 49.2447 129.531 47.0704 125.665 43.2046C121.799 39.3387 119.625 34.097 119.62 28.6299V0L165 49.25Z" fill="#FF3E4C"/>
    <path d="M131.17 150.84H27.93C26.9354 150.84 25.9816 150.445 25.2783 149.742C24.5751 149.038 24.18 148.085 24.18 147.09C24.1826 146.097 24.5789 145.146 25.2819 144.445C25.9848 143.744 26.9372 143.35 27.93 143.35H131.17C132.162 143.35 133.113 143.744 133.815 144.445C134.516 145.147 134.91 146.098 134.91 147.09C134.911 147.582 134.816 148.07 134.628 148.524C134.441 148.979 134.166 149.393 133.818 149.741C133.471 150.089 133.058 150.366 132.604 150.554C132.149 150.743 131.662 150.84 131.17 150.84Z" fill="#FF3E4C"/>
    <path d="M131.17 108.6H27.93C26.9372 108.6 25.9848 108.206 25.2819 107.505C24.5789 106.804 24.1826 105.853 24.18 104.86C24.18 103.866 24.5751 102.912 25.2783 102.208C25.9816 101.505 26.9354 101.11 27.93 101.11H131.17C131.662 101.11 132.149 101.207 132.604 101.396C133.058 101.584 133.471 101.861 133.818 102.209C134.166 102.557 134.441 102.971 134.628 103.426C134.816 103.881 134.911 104.368 134.91 104.86C134.91 105.852 134.516 106.803 133.815 107.505C133.113 108.206 132.162 108.6 131.17 108.6Z" fill="#FF3E4C"/>
    <path d="M131.17 129.72H27.93C26.9354 129.72 25.9816 129.325 25.2783 128.622C24.5751 127.918 24.18 126.965 24.18 125.97C24.1826 124.977 24.5789 124.026 25.2819 123.325C25.9848 122.624 26.9372 122.23 27.93 122.23H131.17C132.162 122.23 133.113 122.624 133.815 123.325C134.516 124.027 134.91 124.978 134.91 125.97C134.911 126.462 134.816 126.949 134.628 127.404C134.441 127.859 134.166 128.273 133.818 128.621C133.471 128.969 133.058 129.246 132.604 129.434C132.149 129.623 131.662 129.72 131.17 129.72Z" fill="#FF3E4C"/>
    <path d="M90.45 87.48H27.93C26.9372 87.48 25.9848 87.0864 25.2819 86.3853C24.5789 85.6842 24.1826 84.7328 24.18 83.74C24.18 82.7454 24.5751 81.7916 25.2783 81.0884C25.9816 80.3851 26.9354 79.99 27.93 79.99H90.45C91.4428 79.9926 92.3941 80.3888 93.0952 81.0918C93.7963 81.7948 94.19 82.7472 94.19 83.74C94.1874 84.7311 93.7925 85.6808 93.0917 86.3816C92.3909 87.0824 91.4411 87.4773 90.45 87.48Z" fill="#FF3E4C"/>
    <path d="M90.45 66.3601H27.93C26.9372 66.3601 25.9848 65.9662 25.2819 65.2651C24.5789 64.564 24.1826 63.6129 24.18 62.6201C24.18 61.6256 24.5751 60.6715 25.2783 59.9683C25.9816 59.265 26.9354 58.8701 27.93 58.8701H90.45C91.4428 58.8728 92.3941 59.2689 93.0952 59.9719C93.7963 60.6749 94.19 61.6273 94.19 62.6201C94.1874 63.6112 93.7925 64.5609 93.0917 65.2617C92.3909 65.9625 91.4411 66.3575 90.45 66.3601Z" fill="#FF3E4C"/>
    <path d="M184.51 170.61H59.47C50.6003 170.61 43.41 177.8 43.41 186.67V223.95C43.41 232.82 50.6003 240.01 59.47 240.01H184.51C193.38 240.01 200.57 232.82 200.57 223.95V186.67C200.57 177.8 193.38 170.61 184.51 170.61Z" fill="#FF3E4C"/>
    <path d="M84.43 213.38V220.65H76.91V213.38H84.43Z" fill="white"/>
    <path d="M95.49 210.1V220.65H88.22V190.58H100C103.57 190.58 106.3 191.47 108.17 193.24C109.116 194.17 109.855 195.289 110.338 196.525C110.82 197.761 111.036 199.085 110.97 200.41C111.006 202.158 110.575 203.884 109.72 205.41C108.847 206.901 107.553 208.102 106 208.86C104.127 209.745 102.071 210.174 100 210.11L95.49 210.1ZM103.57 200.41C103.57 197.743 102.11 196.41 99.19 196.41H95.49V204.24H99.19C102.11 204.267 103.57 202.99 103.57 200.41Z" fill="white"/>
    <path d="M139.7 213.4C138.448 215.674 136.557 217.53 134.26 218.74C131.676 220.063 128.802 220.719 125.9 220.65H114.55V190.58H125.9C128.804 190.507 131.682 191.149 134.28 192.45C136.57 193.634 138.457 195.471 139.7 197.73C141.001 200.128 141.656 202.823 141.6 205.55C141.654 208.287 141 210.991 139.7 213.4ZM131.88 211.89C132.693 211.056 133.323 210.061 133.729 208.969C134.135 207.877 134.309 206.713 134.24 205.55C134.31 204.389 134.136 203.225 133.73 202.135C133.323 201.045 132.693 200.052 131.88 199.22C130.061 197.624 127.685 196.812 125.27 196.96H121.82V214.14H125.27C127.683 214.287 130.057 213.478 131.88 211.89Z" fill="white"/>
    <path d="M165.33 190.58V196.37H153V202.96H162.52V208.49H153V220.65H145.72V190.58H165.33Z" fill="white"/>
    <path d="M129.34 58.87H111.66C108.578 58.87 106.08 61.3682 106.08 64.45V82.13C106.08 85.2117 108.578 87.71 111.66 87.71H129.34C132.422 87.71 134.92 85.2117 134.92 82.13V64.45C134.92 61.3682 132.422 58.87 129.34 58.87Z" fill="#FF3E4C"/>
</svg>
