<svg width="108" height="63" viewBox="0 0 108 63" fill="none" xmlns="http://www.w3.org/2000/svg">
<path d="M25.5306 18.2846C25.3816 18.3256 25.3267 18.3256 25.2953 18.3502C20.5187 22.1975 15.742 26.0447 10.981 29.9084C10.3221 30.4416 9.97699 31.1717 9.97699 32.0822C9.98484 33.6572 9.92993 35.2322 9.92993 36.799C9.92993 42.574 9.92993 48.3408 9.92993 54.1158V54.8459C10.1103 54.8787 10.1809 54.9033 10.2515 54.9033C14.6596 54.8869 19.0754 54.9033 23.4835 54.8459C24.8718 54.8295 26.1189 54.2881 27.1464 53.2791C29.5936 50.8756 32.0251 48.4639 34.4565 46.0439C35.2801 45.2318 36.088 44.4033 36.7939 43.6979C38.7862 45.4779 40.6215 47.3318 42.653 48.8822C50.3475 54.7639 58.7792 56.4373 67.9326 53.3037C71.972 51.9174 75.5408 49.6697 78.7958 46.7904C81.4156 44.4771 82.8117 44.6002 85.5099 46.8232C88.6316 49.3908 91.7925 51.901 94.9456 54.4275C95.0946 54.5506 95.275 54.6408 95.5339 54.8131C95.5339 54.4029 95.5339 54.124 95.5339 53.8369C95.5339 50.449 95.526 47.0611 95.5339 43.6814C95.5339 42.1311 95.6123 40.5807 95.6123 39.0303C95.6123 35.6096 94.3495 33.0256 91.1101 31.7869C91.0317 31.7541 90.9689 31.6885 90.867 31.6229C93.1494 27.4557 95.6437 23.3869 95.5731 18.26H94.8358C90.8356 18.26 86.8354 18.2764 82.8352 18.2436C82.2627 18.2436 82.0744 18.4404 81.9019 18.9818C81.5018 20.2451 81.094 21.5166 80.5214 22.6896C79.9488 23.8709 78.9213 24.5928 77.6036 25.0357V4.7002C77.4624 4.76582 77.3919 4.78223 77.3448 4.82324C73.5485 8.07988 69.7444 11.3201 65.9796 14.6096C64.905 15.5529 64.3246 16.8572 64.2854 18.3174C64.2069 21.3443 64.2305 24.3713 64.1991 27.3982C64.1834 29.3014 64.1912 31.2127 64.105 33.1158C64.0658 34.0346 63.7599 34.9369 62.9441 35.4291C61.8774 36.0771 60.6931 36.3725 59.4538 36.2166C56.8576 35.8967 55.3752 34.1986 54.4888 31.7787C54.3869 31.508 54.3555 31.2127 54.2771 30.8928C55.6261 30.7697 56.8733 30.6303 58.1282 30.5646C58.693 30.5318 58.8498 30.335 58.8498 29.7525C58.8263 26.1268 58.842 22.501 58.8341 18.8752C58.8341 18.6701 58.8106 18.4568 58.7949 18.1861C57.1164 18.0877 55.4614 17.9975 53.7359 17.8908V7.64512C44.3001 15.3561 34.9899 22.9768 25.5385 30.7041V18.2846H25.5306Z" fill="white"/>
<path d="M25.5307 18.2846V30.7041C34.9743 22.9768 44.2923 15.3643 53.7281 7.64512V17.8908C55.4536 17.9893 57.1086 18.0877 58.7871 18.1861C58.8028 18.465 58.8263 18.6701 58.8263 18.8752C58.8263 22.501 58.8185 26.1268 58.842 29.7525C58.842 30.335 58.6851 30.5318 58.1204 30.5646C56.8655 30.6303 55.6183 30.7697 54.2693 30.8928C54.3477 31.2127 54.3791 31.508 54.481 31.7787C55.3595 34.1986 56.8498 35.8885 59.446 36.2166C60.6852 36.3725 61.8696 36.0771 62.9363 35.4291C63.752 34.9369 64.0579 34.0346 64.0972 33.1158C64.1834 31.2127 64.1756 29.3014 64.1913 27.3982C64.2227 24.3713 64.1991 21.3443 64.2776 18.3174C64.3168 16.8572 64.8972 15.5447 65.9717 14.6096C69.7366 11.3201 73.5486 8.07988 77.337 4.82324C77.384 4.78223 77.4546 4.76582 77.5958 4.7002V25.0439C78.9135 24.601 79.941 23.8709 80.5136 22.6979C81.0862 21.5166 81.494 20.2451 81.8941 18.99C82.0666 18.4486 82.2549 18.2518 82.8274 18.2518C86.8276 18.2846 90.8278 18.2682 94.828 18.2682H95.5653C95.6359 23.4033 93.1416 27.4639 90.8592 31.6311C90.9611 31.6967 91.0239 31.7705 91.1023 31.7951C94.3417 33.0338 95.5966 35.626 95.6045 39.0385C95.6045 40.5889 95.5339 42.1393 95.5261 43.6896C95.5104 47.0775 95.5261 50.4654 95.5261 53.8451C95.5261 57.2248 95.5261 54.4111 95.5261 54.8213C95.2594 54.649 95.0868 54.5588 94.9378 54.4357C91.7925 51.9092 88.6238 49.399 85.5021 46.8314C82.8039 44.6084 81.3999 44.4854 78.788 46.7986C75.5408 49.6697 71.9642 51.9256 67.9248 53.3119C58.7714 56.4455 50.3397 54.7721 42.6452 48.8904C40.6059 47.3318 38.7783 45.4861 36.7861 43.7061C36.0802 44.4115 35.2723 45.24 34.4487 46.0522C32.0173 48.4639 29.5779 50.8838 27.1386 53.2873C26.1189 54.2963 24.864 54.8377 23.4757 54.8541C19.0676 54.9115 14.6517 54.8951 10.2437 54.9115C10.1731 54.9115 10.1104 54.8869 9.92212 54.8541V54.124C9.92212 48.349 9.92212 42.5822 9.92212 36.8072C9.92212 35.2322 9.97702 33.6572 9.96918 32.0904C9.96918 31.1799 10.3143 30.4498 10.9731 29.9166C15.7342 26.0529 20.5108 22.2057 25.2875 18.3584C25.3189 18.3338 25.3738 18.3338 25.5228 18.2928L25.5307 18.2846Z" fill="black"/>
</svg>
